# xmcd
#
# Track frame offsets: 
#        150
#        15725
#        34175
#        59050
#        80200
#        99625
#        121012
#        141175
#        159312
#        177562
#
# Disc length: 2622 seconds
#
# Revision: 2
# Processed by: cddbd v1.5.2PL0 Copyright (c) Steve Scherf et al.
# Submitted via: ExactAudioCopy v1.3
#
DISCID=880a3c0a
DTITLE=田震 - 顺其自然 [RS16-CD]
DYEAR=2002
DGENRE=Country
TTITLE0=干杯，朋友
TTITLE1=顺其自然 慢板
TTITLE2=天边的虹
TTITLE3=你的目光温暖了我
TTITLE4=最后的夜
TTITLE5=为你而歌
TTITLE6=梨花非梦
TTITLE7=心在一起
TTITLE8=乐园
TTITLE9=顺其自然 节奏版
EXTD=
EXTT0=
EXTT1=
EXTT2=
EXTT3=
EXTT4=
EXTT5=
EXTT6=
EXTT7=
EXTT8=
EXTT9=
PLAYORDER=
